<?xml version="1.0" encoding="UTF-8" standalone="no"?>
<svg
   xmlns:dc="http://purl.org/dc/elements/1.1/"
   xmlns:cc="http://creativecommons.org/ns#"
   xmlns:rdf="http://www.w3.org/1999/02/22-rdf-syntax-ns#"
   xmlns:svg="http://www.w3.org/2000/svg"
   xmlns="http://www.w3.org/2000/svg"
   xmlns:sodipodi="http://sodipodi.sourceforge.net/DTD/sodipodi-0.dtd"
   xmlns:inkscape="http://www.inkscape.org/namespaces/inkscape"
   version="1.1"
   id="pr_x5F_cc_x5F_app_x5F_RGB.svg"
   x="0px"
   y="0px"
   viewBox="0 0 4096 4096"
   xml:space="preserve"
   sodipodi:docname="adobe-premiere -pro-logo.svg"
   width="4096"
   height="4096"
   inkscape:export-filename="G:\Users\suitedoalex\sites\svg\adobe-premiere -pro-logo-0.png"
   inkscape:export-xdpi="96"
   inkscape:export-ydpi="96"
   inkscape:version="0.92.2 (5c3e80d, 2017-08-06)"><metadata
     id="metadata17"><rdf:RDF><cc:Work
         rdf:about=""><dc:format>image/svg+xml</dc:format><dc:type
           rdf:resource="http://purl.org/dc/dcmitype/StillImage" /><dc:title></dc:title></cc:Work></rdf:RDF></metadata><defs
     id="defs15" /><sodipodi:namedview
     pagecolor="#ffffff"
     bordercolor="#666666"
     borderopacity="1"
     objecttolerance="10"
     gridtolerance="10"
     guidetolerance="10"
     inkscape:pageopacity="0"
     inkscape:pageshadow="2"
     inkscape:window-width="1920"
     inkscape:window-height="1017"
     id="namedview13"
     showgrid="false"
     inkscape:zoom="0.089143804"
     inkscape:cx="510.66506"
     inkscape:cy="2521.6488"
     inkscape:window-x="-8"
     inkscape:window-y="-8"
     inkscape:window-maximized="1"
     inkscape:current-layer="pr_x5F_cc_x5F_app_x5F_RGB.svg" /><g
     id="g4"
     transform="matrix(12.254237,0,0,12.254237,577.48543,614.25427)"
     inkscape:export-xdpi="13.056653"
     inkscape:export-ydpi="13.056653"><rect
       x="10"
       y="10"
       style="clip-rule:evenodd;fill:#2a0034;fill-rule:evenodd"
       width="220"
       height="214"
       id="rect2" /></g><g
     id="g8"
     transform="matrix(12.254237,0,0,12.254237,577.48543,614.25427)"
     inkscape:export-xdpi="13.056653"
     inkscape:export-ydpi="13.056653"><path
       style="clip-rule:evenodd;fill:#ea77ff;fill-rule:evenodd"
       d="M 0,0 V 234 H 240.001 V 0 Z M 10,10 H 230.001 V 224 H 10 Z"
       id="path6"
       inkscape:connector-curvature="0" /></g><path
     style="clip-rule:evenodd;fill:#ea77ff;fill-rule:evenodd;stroke-width:12.25423717"
     d="m 1349.1348,1285.5169 c 0,-8.0878 2.0219,-14.1537 12.1317,-14.1537 78.856,-4.0439 194.1071,-6.0658 315.424,-6.0658 339.6874,0 487.2897,186.0193 487.2897,424.6093 0,311.3802 -225.2941,444.8288 -502.3012,444.8288 -46.5048,0 -62.6804,-2.0097 -95.0315,-2.0097 v 470.9304 c 0,10.122 -4.0439,14.1659 -14.1537,14.1659 h -189.2054 c -10.1097,0 -14.1536,-4.0439 -14.1536,-14.1659 z m 217.5127,651.0554 c 28.3072,2.0342 50.5487,2.0342 99.0754,2.0342 143.5584,0 277.8649,-50.5488 277.8649,-244.6559 0,-155.6901 -95.8894,-234.5583 -259.6673,-234.5583 -48.5268,0 -95.0316,2.0342 -117.273,4.0439 z m 784.2589,-111.2072 c 0,-14.1414 0,-50.5488 -6.0536,-119.2828 0,-10.122 1.4092,-12.1317 9.497,-16.1756 74.7999,-30.3292 249.9007,-84.9218 448.0517,-84.9218 10.122,0 14.1659,2.0097 14.1659,12.1194 v 177.9315 c 0,10.0975 -3.2596,12.1317 -13.3571,12.1317 -76.8464,-4.0439 -189.2667,6.0536 -231.7277,24.2512 v 772.213 c 0,10.122 -4.0439,14.1659 -14.1659,14.1659 H 2365.06 c -10.1097,0 -14.1536,-4.0439 -14.1536,-14.1659 z"
     id="path10"
     inkscape:connector-curvature="0"
     inkscape:export-xdpi="13.056653"
     inkscape:export-ydpi="13.056653" /></svg>